#Comment line ignore any data following # character 
#Hierarchical Translation and Rotation (.htr) file 
[Header]	
#Header keywords are followed by a single value 
FileType HTR		#Single word string
DataType HTRS		#Translation followed by rotation and scale data
FileVersion 1		#integer
NumSegments 84		#integer
NumFrames 2		#integer
DataFrameRate 30		#integer, data frame rate in this file
EulerRotationOrder ZYX
CalibrationUnits mm
RotationUnits Degrees
GlobalAxisofGravity Y
BoneLengthAxis Y
ScaleFactor 1.00
[SegmentNames&Hierarchy]
#CHILD	PARENT
MASTER GLOBAL
root MASTER
chest root
L_mid_tent01 root
R_mid_tent01 root
spine01 root
Bip01_Neck chest
L_humerus chest
R_humerus chest
weapon_bone chest
Bip01_Head Bip01_Neck
eye_left_bone Bip01_Head
eye_right_bone Bip01_Head
L_forearm L_humerus
L_front_hand L_forearm
L_weapon_bone L_forearm
L_front_hand01_01 L_front_hand
L_front_hand02_01 L_front_hand
L_front_hand03_01 L_front_hand
L_front_hand01_02 L_front_hand01_01
L_front_hand02_02 L_front_hand02_01
L_front_hand03_02 L_front_hand03_01
R_forearm R_humerus
R_front_hand R_forearm
R_weapon_bone R_forearm
R_front_hand01_01 R_front_hand
R_front_hand02_01 R_front_hand
R_front_hand03_01 R_front_hand
R_front_hand01_02 R_front_hand01_01
R_front_hand02_02 R_front_hand02_01
R_front_hand03_02 R_front_hand03_01
null_rope01_connect L_mid_tent01
Rope1_Seg01 null_rope01_connect
Rope1_Seg02 Rope1_Seg01
Rope1_Seg03 Rope1_Seg02
Rope1_Seg04 Rope1_Seg03
Rope1_Seg05 Rope1_Seg04
Rope1_Seg06 Rope1_Seg05
Rope1_Seg07 Rope1_Seg06
Rope1_Seg09 Rope1_Seg07
L_mid_hand01 Rope1_Seg09
L_mid_hand02 Rope1_Seg09
L_mid_hand03 Rope1_Seg09
null_rope02_connect R_mid_tent01
Rope2_Seg01 null_rope02_connect
Rope2_Seg02 Rope2_Seg01
Rope2_Seg03 Rope2_Seg02
Rope2_Seg04 Rope2_Seg03
Rope2_Seg05 Rope2_Seg04
Rope2_Seg06 Rope2_Seg05
Rope2_Seg07 Rope2_Seg06
Rope2_Seg09 Rope2_Seg07
R_mid_hand01 Rope2_Seg09
R_mid_hand02 Rope2_Seg09
R_mid_hand03 Rope2_Seg09
spine02 spine01
spine03 spine02
pelvis spine03
null_rope03_connect pelvis
null_rope04_connect pelvis
Rope3_Seg01 null_rope03_connect
Rope3_Seg02 Rope3_Seg01
Rope3_Seg03 Rope3_Seg02
Rope3_Seg04 Rope3_Seg03
Rope3_Seg05 Rope3_Seg04
Rope3_Seg06 Rope3_Seg05
Rope3_Seg07 Rope3_Seg06
Rope3_Seg08 Rope3_Seg07
Rope3_Seg09 Rope3_Seg08
R_rear_hand01 Rope3_Seg09
R_rear_hand02 Rope3_Seg09
R_rear_hand03 Rope3_Seg09
Rope4_Seg01 null_rope04_connect
Rope4_Seg02 Rope4_Seg01
Rope4_Seg03 Rope4_Seg02
Rope4_Seg04 Rope4_Seg03
Rope4_Seg05 Rope4_Seg04
Rope4_Seg06 Rope4_Seg05
Rope4_Seg07 Rope4_Seg06
Rope4_Seg08 Rope4_Seg07
Rope4_Seg09 Rope4_Seg08
L_rear_hand01 Rope4_Seg09
L_rear_hand02 Rope4_Seg09
L_rear_hand03 Rope4_Seg09
[BasePosition]
#SegmentName Tx, Ty, Tz, Rx, Ry, Rz, BoneLength
MASTER 0.000000 0.000000 0.000000 -90.000000 0.000000 0.000000 10.000000 
root 0.000000 0.000000 0.000000 0.000000 0.000000 0.000000 10.000000 
chest 0.000000 0.000000 0.000000 0.000000 0.000000 0.000000 10.000000 
L_mid_tent01 0.000000 0.000000 0.000000 0.000000 0.000000 0.000000 10.000000 
R_mid_tent01 0.000000 0.000000 0.000000 0.000000 0.000000 0.000000 10.000000 
spine01 0.000000 0.000000 0.000000 0.000000 0.000000 0.000000 10.000000 
Bip01_Neck 0.000000 0.000000 0.000000 0.000000 0.000000 0.000000 10.000000 
L_humerus 0.000000 0.000000 0.000000 0.000000 0.000000 0.000000 10.000000 
R_humerus 0.000000 0.000000 0.000000 0.000000 0.000000 0.000000 10.000000 
weapon_bone 0.000000 0.000000 0.000000 0.000000 0.000000 0.000000 10.000000 
Bip01_Head 0.000000 0.000000 0.000000 0.000000 0.000000 0.000000 10.000000 
eye_left_bone 0.000000 0.000000 0.000000 0.000000 0.000000 0.000000 10.000000 
eye_right_bone 0.000000 0.000000 0.000000 0.000000 0.000000 0.000000 10.000000 
L_forearm 0.000000 0.000000 0.000000 0.000000 0.000000 0.000000 10.000000 
L_front_hand 0.000000 0.000000 0.000000 0.000000 0.000000 0.000000 10.000000 
L_weapon_bone 0.000000 0.000000 0.000000 0.000000 0.000000 0.000000 10.000000 
L_front_hand01_01 0.000000 0.000000 0.000000 0.000000 0.000000 0.000000 10.000000 
L_front_hand02_01 0.000000 0.000000 0.000000 0.000000 0.000000 0.000000 10.000000 
L_front_hand03_01 0.000000 0.000000 0.000000 0.000000 0.000000 0.000000 10.000000 
L_front_hand01_02 0.000000 0.000000 0.000000 0.000000 0.000000 0.000000 10.000000 
L_front_hand02_02 0.000000 0.000000 0.000000 0.000000 0.000000 0.000000 10.000000 
L_front_hand03_02 0.000000 0.000000 0.000000 0.000000 0.000000 0.000000 10.000000 
R_forearm 0.000000 0.000000 0.000000 0.000000 0.000000 0.000000 10.000000 
R_front_hand 0.000000 0.000000 0.000000 0.000000 0.000000 0.000000 10.000000 
R_weapon_bone 0.000000 0.000000 0.000000 0.000000 0.000000 0.000000 10.000000 
R_front_hand01_01 0.000000 0.000000 0.000000 0.000000 0.000000 0.000000 10.000000 
R_front_hand02_01 0.000000 0.000000 0.000000 0.000000 0.000000 0.000000 10.000000 
R_front_hand03_01 0.000000 0.000000 0.000000 0.000000 0.000000 0.000000 10.000000 
R_front_hand01_02 0.000000 0.000000 0.000000 0.000000 0.000000 0.000000 10.000000 
R_front_hand02_02 0.000000 0.000000 0.000000 0.000000 0.000000 0.000000 10.000000 
R_front_hand03_02 0.000000 0.000000 0.000000 0.000000 0.000000 0.000000 10.000000 
null_rope01_connect 0.000000 0.000000 0.000000 0.000000 0.000000 0.000000 10.000000 
Rope1_Seg01 0.000000 0.000000 0.000000 0.000000 0.000000 0.000000 10.000000 
Rope1_Seg02 0.000000 0.000000 0.000000 0.000000 0.000000 0.000000 10.000000 
Rope1_Seg03 0.000000 0.000000 0.000000 0.000000 0.000000 0.000000 10.000000 
Rope1_Seg04 0.000000 0.000000 0.000000 0.000000 0.000000 0.000000 10.000000 
Rope1_Seg05 0.000000 0.000000 0.000000 0.000000 0.000000 0.000000 10.000000 
Rope1_Seg06 0.000000 0.000000 0.000000 0.000000 0.000000 0.000000 10.000000 
Rope1_Seg07 0.000000 0.000000 0.000000 0.000000 0.000000 0.000000 10.000000 
Rope1_Seg09 0.000000 0.000000 0.000000 0.000000 0.000000 0.000000 10.000000 
L_mid_hand01 0.000000 0.000000 0.000000 0.000000 0.000000 0.000000 10.000000 
L_mid_hand02 0.000000 0.000000 0.000000 0.000000 0.000000 0.000000 10.000000 
L_mid_hand03 0.000000 0.000000 0.000000 0.000000 0.000000 0.000000 10.000000 
null_rope02_connect 0.000000 0.000000 0.000000 0.000000 0.000000 0.000000 10.000000 
Rope2_Seg01 0.000000 0.000000 0.000000 0.000000 0.000000 0.000000 10.000000 
Rope2_Seg02 0.000000 0.000000 0.000000 0.000000 0.000000 0.000000 10.000000 
Rope2_Seg03 0.000000 0.000000 0.000000 0.000000 0.000000 0.000000 10.000000 
Rope2_Seg04 0.000000 0.000000 0.000000 0.000000 0.000000 0.000000 10.000000 
Rope2_Seg05 0.000000 0.000000 0.000000 0.000000 0.000000 0.000000 10.000000 
Rope2_Seg06 0.000000 0.000000 0.000000 0.000000 0.000000 0.000000 10.000000 
Rope2_Seg07 0.000000 0.000000 0.000000 0.000000 0.000000 0.000000 10.000000 
Rope2_Seg09 0.000000 0.000000 0.000000 0.000000 0.000000 0.000000 10.000000 
R_mid_hand01 0.000000 0.000000 0.000000 0.000000 0.000000 0.000000 10.000000 
R_mid_hand02 0.000000 0.000000 0.000000 0.000000 0.000000 0.000000 10.000000 
R_mid_hand03 0.000000 0.000000 0.000000 0.000000 0.000000 0.000000 10.000000 
spine02 0.000000 0.000000 0.000000 0.000000 0.000000 0.000000 10.000000 
spine03 0.000000 0.000000 0.000000 0.000000 0.000000 0.000000 10.000000 
pelvis 0.000000 0.000000 0.000000 0.000000 0.000000 0.000000 10.000000 
null_rope03_connect 0.000000 0.000000 0.000000 0.000000 0.000000 0.000000 10.000000 
null_rope04_connect 0.000000 0.000000 0.000000 0.000000 0.000000 0.000000 10.000000 
Rope3_Seg01 0.000000 0.000000 0.000000 0.000000 0.000000 0.000000 10.000000 
Rope3_Seg02 0.000000 0.000000 0.000000 0.000000 0.000000 0.000000 10.000000 
Rope3_Seg03 0.000000 0.000000 0.000000 0.000000 0.000000 0.000000 10.000000 
Rope3_Seg04 0.000000 0.000000 0.000000 0.000000 0.000000 0.000000 10.000000 
Rope3_Seg05 0.000000 0.000000 0.000000 0.000000 0.000000 0.000000 10.000000 
Rope3_Seg06 0.000000 0.000000 0.000000 0.000000 0.000000 0.000000 10.000000 
Rope3_Seg07 0.000000 0.000000 0.000000 0.000000 0.000000 0.000000 10.000000 
Rope3_Seg08 0.000000 0.000000 0.000000 0.000000 0.000000 0.000000 10.000000 
Rope3_Seg09 0.000000 0.000000 0.000000 0.000000 0.000000 0.000000 10.000000 
R_rear_hand01 0.000000 0.000000 0.000000 0.000000 0.000000 0.000000 10.000000 
R_rear_hand02 0.000000 0.000000 0.000000 0.000000 0.000000 0.000000 10.000000 
R_rear_hand03 0.000000 0.000000 0.000000 0.000000 0.000000 0.000000 10.000000 
Rope4_Seg01 0.000000 0.000000 0.000000 0.000000 0.000000 0.000000 10.000000 
Rope4_Seg02 0.000000 0.000000 0.000000 0.000000 0.000000 0.000000 10.000000 
Rope4_Seg03 0.000000 0.000000 0.000000 0.000000 0.000000 0.000000 10.000000 
Rope4_Seg04 0.000000 0.000000 0.000000 0.000000 0.000000 0.000000 10.000000 
Rope4_Seg05 0.000000 0.000000 0.000000 0.000000 0.000000 0.000000 10.000000 
Rope4_Seg06 0.000000 0.000000 0.000000 0.000000 0.000000 0.000000 10.000000 
Rope4_Seg07 0.000000 0.000000 0.000000 0.000000 0.000000 0.000000 10.000000 
Rope4_Seg08 0.000000 0.000000 0.000000 0.000000 0.000000 0.000000 10.000000 
Rope4_Seg09 0.000000 0.000000 0.000000 0.000000 0.000000 0.000000 10.000000 
L_rear_hand01 0.000000 0.000000 0.000000 0.000000 0.000000 0.000000 10.000000 
L_rear_hand02 0.000000 0.000000 0.000000 0.000000 0.000000 0.000000 10.000000 
L_rear_hand03 0.000000 0.000000 0.000000 0.000000 0.000000 0.000000 10.000000 
#Beginning of Data. Separated by tabs
#Fr	Tx	Ty	Tz	Rx	Ry	Rz	SF
[MASTER]
3 0.000000 0.000000 0.000000 0.001660 0.001660 0.001660 0.000000
4 0.000000 0.000000 0.000000 0.001660 0.001660 0.001660 0.000000
[root]
3 -27.884632 -56.740528 1501.395752 -78.216667 -39.024368 -87.973343 1502.726196
4 -27.884632 -56.740528 1501.395752 -78.216667 -39.024372 -87.973343 1502.726196
[chest]
3 -84.512650 -34.090519 0.000000 -2.594532 -0.201363 179.701126 91.129311
4 -84.512650 -34.090519 0.000000 -2.594532 -0.201363 179.701126 91.129311
[L_mid_tent01]
3 27.299511 22.177458 -249.918259 3.862626 36.229202 81.347610 252.381134
4 27.299511 22.177458 -249.918259 3.862628 36.229202 81.347610 252.381134
[R_mid_tent01]
3 23.228794 24.509907 226.238495 160.432022 -47.061234 87.899750 228.744751
4 23.228794 24.509907 226.238495 160.432022 -47.061234 87.899765 228.744751
[spine01]
3 -0.361383 -0.195265 0.000000 0.002062 0.001122 32.879829 0.410763
4 -0.361383 -0.195265 0.000000 0.002062 0.001122 32.879822 0.410763
[Bip01_Neck]
3 165.484543 71.581718 0.000119 176.643677 -1.657966 43.431908 180.302734
4 165.484543 71.581718 0.000119 176.643677 -1.657967 43.431911 180.302734
[L_humerus]
3 -13.983130 -135.272980 -120.471481 156.317398 70.210068 -112.010254 181.680161
4 -13.983130 -135.272980 -120.471481 156.317398 70.210068 -112.010254 181.680161
[R_humerus]
3 -13.983309 -135.273102 125.287651 -172.382248 -66.903831 -92.554016 184.909012
4 -13.983309 -135.273102 125.287651 -172.382263 -66.903839 -92.553993 184.909012
[weapon_bone]
3 235.964890 -300.705902 0.000000 0.000000 -89.951546 -128.212341 382.234833
4 235.964890 -300.705902 0.000000 0.000000 -89.951546 -128.212341 382.234833
[Bip01_Head]
3 213.371994 185.916519 9.179921 9.067745 3.281933 -43.888077 283.155121
4 213.371994 185.916519 9.179924 9.067745 3.281933 -43.888077 283.155121
[eye_left_bone]
3 -24.626970 125.451866 -64.772606 0.000000 -90.000000 -99.840431 143.318359
4 -24.626970 125.451866 -64.772606 0.000000 -90.000000 -99.840431 143.318359
[eye_right_bone]
3 -24.626970 125.451866 64.327362 0.000000 -89.965736 80.156380 143.117676
4 -24.626970 125.451866 64.327362 0.000000 -89.965736 80.156380 143.117676
[L_forearm]
3 322.776093 0.000000 -0.000119 0.000119 -0.002344 -95.807457 322.776093
4 322.776093 0.000000 -0.000119 0.000119 -0.002344 -95.807457 322.776093
[L_front_hand]
3 241.149185 -0.042021 -3.300071 -178.667953 -1.835447 -27.422350 241.171753
4 241.149185 -0.042021 -3.300071 -178.667953 -1.835447 -27.422342 241.171753
[L_weapon_bone]
3 156.183838 0.000000 0.000000 0.000014 0.000007 0.000001 156.183838
4 156.183838 0.000000 0.000000 0.000014 0.000007 0.000001 156.183838
[L_front_hand01_01]
3 86.095154 20.947098 -0.655860 -0.366594 -0.477154 75.385574 88.609184
4 86.095154 20.947098 -0.655860 -0.366594 -0.477154 75.385574 88.609184
[L_front_hand02_01]
3 86.935165 -11.437475 24.513514 154.399796 -59.883820 -61.369564 91.046425
4 86.935165 -11.437475 24.513514 154.399796 -59.883835 -61.369587 91.046425
[L_front_hand03_01]
3 86.637497 -14.123976 -20.424902 -153.913849 58.118130 -62.702866 90.126129
4 86.637497 -14.123976 -20.424902 -153.913849 58.118130 -62.702866 90.126129
[L_front_hand01_02]
3 71.020905 -0.000179 0.000030 0.000334 -0.002323 -106.379684 71.020905
4 71.020905 -0.000179 0.000030 0.000334 -0.002323 -106.379700 71.020905
[L_front_hand02_02]
3 71.020927 -0.000119 0.000060 0.000334 -0.002323 -106.379684 71.020927
4 71.020927 -0.000119 0.000060 0.000334 -0.002323 -106.379700 71.020927
[L_front_hand03_02]
3 71.020905 -0.000060 0.000060 0.000334 -0.002323 -106.379684 71.020905
4 71.020905 -0.000060 0.000060 0.000334 -0.002323 -106.379700 71.020905
[R_forearm]
3 322.776428 -0.000060 0.000030 0.209504 0.012586 -94.339050 322.776428
4 322.776428 -0.000060 0.000030 0.209504 0.012586 -94.339050 322.776428
[R_front_hand]
3 238.847015 -0.006795 2.210259 -2.635298 -10.645460 -26.312500 238.857239
4 238.847015 -0.006795 2.210259 -2.635298 -10.645461 -26.312506 238.857239
[R_weapon_bone]
3 155.664093 0.002503 -0.000030 0.003487 0.001180 -90.988930 155.664078
4 155.664093 0.002503 -0.000030 0.003487 0.001180 -90.988930 155.664078
[R_front_hand01_01]
3 87.624611 14.231146 22.918642 -154.633499 -59.950619 61.746044 91.683487
4 87.624611 14.231146 22.918642 -154.633484 -59.950619 61.746037 91.683487
[R_front_hand02_01]
3 89.356956 14.367283 -19.491137 154.602661 58.302849 63.744389 92.579636
4 89.356956 14.367283 -19.491137 154.602661 58.302849 63.744389 92.579636
[R_front_hand03_01]
3 87.286232 -22.307278 -0.143439 0.162155 -0.423168 -75.767921 90.091743
4 87.286232 -22.307278 -0.143439 0.162155 -0.423168 -75.767906 90.091743
[R_front_hand01_02]
3 71.020905 0.000060 0.000119 0.002323 -0.000334 106.381714 71.020905
4 71.020905 0.000060 0.000119 0.002323 -0.000334 106.381714 71.020905
[R_front_hand02_02]
3 71.020844 -0.000030 -0.000119 0.002323 -0.000334 106.381714 71.020836
4 71.020844 -0.000030 -0.000119 0.002323 -0.000334 106.381714 71.020836
[R_front_hand03_02]
3 71.020905 0.000000 0.000030 0.002323 -0.000334 106.381714 71.020905
4 71.020905 0.000000 0.000030 0.002323 -0.000334 106.381714 71.020905
[null_rope01_connect]
3 328.732483 0.000000 -0.000238 -121.867149 -66.548218 170.046249 328.732483
4 328.732483 0.000000 -0.000238 -121.867149 -66.548218 170.046249 328.732483
[Rope1_Seg01]
3 0.000000 0.000000 0.000000 112.627937 7.836587 -168.873718 0.000000
4 0.000000 0.000000 0.000000 111.929970 6.828547 -169.139633 0.000000
[Rope1_Seg02]
3 139.999863 -0.000179 0.000000 12.171614 -15.873034 -6.025788 139.999863
4 139.999863 -0.000179 0.000000 12.343721 -15.790770 -6.629245 139.999863
[Rope1_Seg03]
3 139.999924 0.000060 -0.000060 11.967202 -23.820955 -6.912112 139.999924
4 139.999924 0.000060 -0.000060 12.781209 -24.125372 -8.181102 139.999924
[Rope1_Seg04]
3 139.999924 -0.000060 -0.000119 2.009363 -28.221121 3.399032 139.999924
4 139.999924 -0.000060 -0.000119 2.327330 -28.125364 2.851122 139.999924
[Rope1_Seg05]
3 139.999832 0.000119 -0.000060 -5.609882 -23.964262 13.104413 139.999832
4 139.999832 0.000119 -0.000060 -5.314779 -23.353386 13.775289 139.999832
[Rope1_Seg06]
3 139.999954 0.000119 -0.000060 -3.777683 -10.348910 3.976543 139.999954
4 139.999954 0.000119 -0.000060 -3.568767 -10.276021 4.332674 139.999954
[Rope1_Seg07]
3 139.999985 0.000060 0.000000 -2.586035 -5.379503 1.586652 139.999985
4 139.999985 0.000060 0.000000 -2.472877 -5.359848 1.766588 139.999985
[Rope1_Seg09]
3 121.602913 0.000119 -0.000089 -89.793175 -1.359789 0.847147 121.602913
4 121.602913 0.000119 -0.000089 -89.793175 -1.359789 0.847147 121.602913
[L_mid_hand01]
3 103.859421 1.038730 8.195221 130.544388 -67.584534 -38.866955 104.187431
4 103.859421 1.038730 8.195221 130.544342 -67.584496 -38.866920 104.187431
[L_mid_hand02]
3 105.572853 -4.139662 -10.864139 -168.923172 43.409302 -73.498894 106.211075
4 105.572853 -4.139662 -10.864139 -168.923172 43.409306 -73.498871 106.211075
[L_mid_hand03]
3 104.641464 17.579376 -3.913581 -6.012627 17.808176 74.893669 106.179977
4 104.641464 17.579376 -3.913581 -6.012625 17.808172 74.893669 106.179977
[null_rope02_connect]
3 328.732849 0.000179 -0.000119 -116.101486 27.529919 12.015827 328.732849
4 328.732849 0.000179 -0.000119 -116.101486 27.529917 12.015828 328.732849
[Rope2_Seg01]
3 -0.000038 0.000153 0.000000 -43.737766 5.700785 -1.823778 0.000157
4 -0.000038 0.000153 0.000000 -42.460674 4.415540 -1.714303 0.000157
[Rope2_Seg02]
3 139.999741 -0.000060 -0.000119 -15.401424 3.686924 15.972375 139.999756
4 139.999741 -0.000060 -0.000119 -15.446214 4.243668 16.015007 139.999756
[Rope2_Seg03]
3 140.000107 0.000030 0.000000 -12.448668 -1.862113 19.567553 140.000107
4 140.000107 0.000030 0.000000 -12.824300 -1.222810 19.972191 140.000107
[Rope2_Seg04]
3 139.999802 0.000000 -0.000060 -5.887756 -4.938666 14.788447 139.999802
4 139.999802 0.000000 -0.000060 -6.100870 -4.650006 15.131986 139.999802
[Rope2_Seg05]
3 139.999985 -0.000060 0.000119 -5.038725 -1.831188 21.048134 139.999985
4 139.999985 -0.000060 0.000119 -4.938225 -1.551573 19.961395 139.999985
[Rope2_Seg06]
3 139.999893 -0.000030 -0.000119 -1.428683 -3.225483 28.125198 139.999893
4 139.999893 -0.000030 -0.000119 -1.827152 -2.692742 27.071375 139.999893
[Rope2_Seg07]
3 139.999893 0.000060 -0.000060 2.156493 -2.768430 16.188786 139.999893
4 139.999893 0.000060 -0.000060 1.723047 -2.712906 16.258841 139.999893
[Rope2_Seg09]
3 121.338966 0.000089 -0.000060 33.793236 -1.359788 -0.847141 121.338966
4 121.338966 0.000089 -0.000060 33.793236 -1.359788 -0.847141 121.338966
[R_mid_hand01]
3 104.680779 11.144459 -10.335981 -16.212055 45.237240 70.462852 105.778534
4 104.680779 11.144459 -10.335981 -16.212063 45.237247 70.462852 105.778534
[R_mid_hand02]
3 104.070427 2.443552 8.231699 49.067368 -67.749771 39.286453 104.424065
4 104.070427 2.443552 8.231699 49.067394 -67.749794 39.286465 104.424065
[R_mid_hand03]
3 106.028137 -11.221827 -5.996406 -177.101105 15.551026 -76.585571 106.788818
4 106.028137 -11.221827 -5.996406 -177.101105 15.551026 -76.585587 106.788818
[spine02]
3 129.756927 0.001550 0.000119 -1.023900 -3.926965 6.770993 129.756927
4 129.756927 0.001550 0.000119 -1.023899 -3.926964 6.770991 129.756927
[spine03]
3 78.613846 0.087372 -4.898873 1.040680 4.146420 4.212375 78.766380
4 78.613846 0.087372 -4.898873 1.040680 4.146419 4.212375 78.766380
[pelvis]
3 169.435242 0.051022 0.000000 0.019518 -0.190233 -10.721436 169.435257
4 169.435242 0.051022 0.000000 0.019518 -0.190233 -10.721436 169.435257
[null_rope03_connect]
3 -1.257226 -2.466202 137.391083 46.458321 -77.110146 49.356079 137.418976
4 -1.257226 -2.466202 137.391083 46.458321 -77.110146 49.356079 137.418976
[null_rope04_connect]
3 -1.259640 -2.480268 -137.844437 46.458321 -77.110146 49.356079 137.872513
4 -1.259640 -2.480268 -137.844437 46.458321 -77.110146 49.356079 137.872513
[Rope3_Seg01]
3 0.000000 0.000000 0.000000 -150.693848 -78.366112 -70.335136 0.000000
4 0.000000 0.000000 0.000000 -150.328201 -78.346138 -70.701561 0.000000
[Rope3_Seg02]
3 139.999924 -0.000119 0.000060 -0.588308 -4.851649 -12.114167 139.999924
4 139.999924 -0.000119 0.000060 -0.587252 -4.851778 -12.139101 139.999924
[Rope3_Seg03]
3 139.999924 -0.000119 0.000119 -1.643087 -5.181101 -13.043741 139.999924
4 139.999924 -0.000119 0.000119 -1.681598 -5.270292 -13.295431 139.999924
[Rope3_Seg04]
3 139.999924 0.000119 0.000000 0.936921 -6.431103 -9.284659 139.999924
4 139.999924 0.000119 0.000000 0.911535 -6.625736 -9.683338 139.999924
[Rope3_Seg05]
3 139.999924 -0.000238 0.000060 -6.049322 -2.012985 -9.055504 139.999924
4 139.999924 -0.000238 0.000060 -6.651712 -2.010764 -9.375793 139.999924
[Rope3_Seg06]
3 139.999893 -0.000119 -0.000060 -48.117321 5.245702 -19.765736 139.999893
4 139.999893 -0.000119 -0.000060 -51.937622 5.871775 -20.306194 139.999893
[Rope3_Seg07]
3 139.999771 0.000060 -0.000119 -54.324741 28.890095 -15.665493 139.999771
4 139.999771 0.000060 -0.000119 -50.365219 30.053141 -13.027350 139.999771
[Rope3_Seg08]
3 139.999985 -0.000060 0.000000 -6.745786 16.450533 6.644557 139.999985
4 139.999985 -0.000060 0.000000 -6.005256 15.991995 6.909785 139.999985
[Rope3_Seg09]
3 90.185997 -0.000179 -0.000060 89.793228 -1.359877 -0.847183 90.185997
4 90.185997 -0.000179 -0.000060 89.793228 -1.359877 -0.847183 90.185997
[R_rear_hand01]
3 103.366196 -6.073594 -10.757982 -177.714203 24.565960 -73.910950 104.101845
4 103.366196 -6.073594 -10.757982 -177.714203 24.565960 -73.910950 104.101845
[R_rear_hand02]
3 100.509819 12.039542 -7.992327 -12.874829 36.868488 72.167213 101.543350
4 100.509819 12.039542 -7.992327 -12.874827 36.868492 72.167221 101.543350
[R_rear_hand03]
3 101.539970 5.215704 5.435467 71.484581 -71.816628 21.513813 101.819031
4 101.539970 5.215704 5.435467 71.484589 -71.816643 21.513813 101.819031
[Rope4_Seg01]
3 0.000026 -0.000114 -0.000153 67.482018 -41.152935 -125.151390 0.000193
4 0.000025 -0.000114 -0.000153 67.506920 -41.106758 -125.225784 0.000192
[Rope4_Seg02]
3 139.999985 0.000060 0.000119 2.485536 -13.341144 -3.191375 139.999985
4 139.999985 0.000060 0.000119 2.491113 -13.336165 -3.183604 139.999985
[Rope4_Seg03]
3 139.999924 0.000000 -0.000238 10.000896 -22.405041 -4.919101 139.999924
4 139.999924 0.000000 -0.000238 10.021782 -22.383924 -4.890913 139.999924
[Rope4_Seg04]
3 139.999985 0.000000 0.000119 58.296722 -23.602444 -3.244772 139.999985
4 139.999985 0.000000 0.000119 58.378841 -23.607162 -3.144642 139.999985
[Rope4_Seg05]
3 139.999802 -0.000060 -0.000119 68.810532 -9.056896 17.148449 139.999802
4 139.999802 -0.000060 -0.000119 68.589546 -9.074740 17.204565 139.999802
[Rope4_Seg06]
3 139.999924 0.000000 0.000060 14.054835 25.739033 23.360844 139.999924
4 139.999924 0.000000 0.000060 14.113492 25.302786 23.234276 139.999924
[Rope4_Seg07]
3 139.999802 0.000000 0.000000 4.046102 20.596737 13.807501 139.999802
4 139.999802 0.000000 0.000000 4.021115 20.251820 13.661823 139.999802
[Rope4_Seg08]
3 139.999924 0.000000 0.000119 -0.888550 8.657343 5.422246 139.999924
4 139.999924 0.000000 0.000119 -0.872379 8.591928 5.413800 139.999924
[Rope4_Seg09]
3 90.185791 0.000060 0.000060 -135.617828 2.228885 0.850567 90.185791
4 90.185791 0.000060 0.000060 -135.617828 2.228885 0.850567 90.185791
[L_rear_hand01]
3 101.696655 -8.392275 -7.654577 -12.874829 -36.868488 107.832764 102.329041
4 101.696655 -8.392275 -7.654577 -12.874827 -36.868492 107.832764 102.329041
[L_rear_hand02]
3 102.726799 -1.568258 5.773216 71.484581 71.816628 158.486160 102.900848
4 102.726799 -1.568258 5.773216 71.484589 71.816643 158.486160 102.900848
[L_rear_hand03]
3 104.552910 9.721220 -10.420293 -177.714203 -24.565960 -106.089035 105.519653
4 104.552910 9.721220 -10.420293 -177.714203 -24.565960 -106.089035 105.519653
